<?xml version="1.0" encoding="UTF-8"?>
<svg width="47px" height="47px" viewBox="0 0 47 47" version="1.1" xmlns="http://www.w3.org/2000/svg" xmlns:xlink="http://www.w3.org/1999/xlink">
    <!-- Generator: Sketch 40.1 (33804) - http://www.bohemiancoding.com/sketch -->
    <title>Group 2</title>
    <desc>Created with Sketch.</desc>
    <defs></defs>
    <g id="Page-1" stroke="none" stroke-width="1" fill="none" fill-rule="evenodd">
        <g id="Group-2" transform="translate(1.000000, 1.000000)" stroke="#616161">
            <path d="M38.4099026,6.59009742 C42.4816017,10.6617966 45,16.2867966 45,22.5 C45,34.9264069 34.9264069,45 22.5,45 C10.0737597,45 0.00027006193,34.9266769 5.43002566e-09,22.5004997 C1.42108547e-14,34.927 10.073,45 22.5,45 C25.446,45 28.26,44.434 30.839,43.404 C26.061,43.44 23.184,44.278 18.752,43.468 C16.434,43.044 15.209,44.869 14.948,42.426 L13.937,32.922 C13.225,26.24 12.216,19.62 18.407,18.79 C22.023,18.305 22.411,13.286 24.669,10.632 C27.693,7.078 32.222,8.107 34.652,11.955 C37.446,16.382 36.237,18.021 41.772,19.47 C43.991,20.05 43.997,22.735 44.521,27.134 C44.835,25.639 45,24.089 45,22.501 C45,16.2873333 42.4816149,10.6619482 38.4097974,6.59004734 Z M32.353581,14.465108 C32.4762738,13.6933155 32.0800706,12.9888575 31.4686364,12.891657 C30.8572022,12.7944565 30.2620746,13.3413215 30.1393818,14.113114 C30.016689,14.8849065 30.4128922,15.5893645 31.0243264,15.686565 C31.6357606,15.7837655 32.2308882,15.2369005 32.353581,14.465108 Z M27.5757129,15.6838952 C28.268347,15.5733543 28.7166598,14.7745846 28.5770475,13.8997932 C28.4374352,13.0250018 27.7627662,12.4054543 27.0701321,12.5159952 C26.377498,12.6265361 25.9291852,13.4253058 26.0687975,14.3000972 C26.2084098,15.1748886 26.8830788,15.7944361 27.5757129,15.6838952 Z" id="Combined-Shape"></path>
            <circle id="Oval-3" cx="22.5" cy="22.5" r="22.5"></circle>
        </g>
    </g>
</svg>