<?xml version="1.0" encoding="utf-8"?>
<!-- Generator: Adobe Illustrator 15.1.0, SVG Export Plug-In . SVG Version: 6.00 Build 0)  -->
<!DOCTYPE svg PUBLIC "-//W3C//DTD SVG 1.1//EN" "http://www.w3.org/Graphics/SVG/1.1/DTD/svg11.dtd">
<svg version="1.1" id="Ebene_1" xmlns="http://www.w3.org/2000/svg" xmlns:xlink="http://www.w3.org/1999/xlink" x="0px" y="0px"
	 width="45px" height="45px" viewBox="0 0 45 45" enable-background="new 0 0 45 45" xml:space="preserve">
<g>
	<path fill-rule="evenodd" clip-rule="evenodd" fill="#97BFDA" d="M18.752,43.468c-2.318-0.424-3.543,1.401-3.804-1.042
		l-1.011-9.504c-0.712-6.682-1.721-13.302,4.47-14.132c3.616-0.485,4.004-5.504,6.262-8.158c3.024-3.554,7.553-2.525,9.983,1.323
		c2.794,4.427,1.585,6.066,7.12,7.515c2.219,0.58,2.225,3.265,2.749,7.664C44.835,25.639,45,24.089,45,22.501
		C45,10.074,34.927,0,22.5,0S0,10.074,0,22.501C0,34.927,10.073,45,22.5,45c2.946,0,5.76-0.566,8.339-1.596
		C26.061,43.44,23.184,44.278,18.752,43.468z"/>
	
		<ellipse transform="matrix(0.157 -0.9876 0.9876 0.157 12.2292 42.9033)" fill-rule="evenodd" clip-rule="evenodd" fill="#97BFDA" cx="31.245" cy="14.289" rx="1.415" ry="1.121"/>
	
		<ellipse transform="matrix(0.9875 -0.1576 0.1576 0.9875 -1.8807 4.4823)" fill-rule="evenodd" clip-rule="evenodd" fill="#97BFDA" cx="27.323" cy="14.1" rx="1.27" ry="1.604"/>
</g>
</svg>
