<?xml version="1.0" encoding="utf-8"?>
<!-- Generator: Adobe Illustrator 15.1.0, SVG Export Plug-In . SVG Version: 6.00 Build 0)  -->
<!DOCTYPE svg PUBLIC "-//W3C//DTD SVG 1.1//EN" "http://www.w3.org/Graphics/SVG/1.1/DTD/svg11.dtd">
<svg version="1.1" id="Ebene_1" xmlns="http://www.w3.org/2000/svg" xmlns:xlink="http://www.w3.org/1999/xlink" x="0px" y="0px"
	 width="45px" height="45px" viewBox="0 0 45 45" enable-background="new 0 0 45 45" xml:space="preserve">
<g>
	<path fill-rule="evenodd" clip-rule="evenodd" fill="#97BFDA" d="M29.911,33.729c-1.244-3.422-3.362-5.213-4.149-5.213
		s-2.906,1.791-4.148,5.213c-1.495,4.114-0.302,10.553-0.29,10.618c0.044,0.23-0.061,0.462-0.26,0.577
		c-0.018,0.011-0.035,0.021-0.054,0.027C21.502,44.984,21.999,45,22.499,45c2.75,0,5.385-0.494,7.82-1.395
		C30.583,41.781,31.104,37.014,29.911,33.729z"/>
	<path fill-rule="evenodd" clip-rule="evenodd" fill="#97BFDA" d="M22.499,0C10.073,0,0,10.075,0,22.5
		c0,11.745,9,21.391,20.48,22.412c-0.017-0.011-0.033-0.021-0.049-0.038c-0.134-0.109-3.274-2.735-4.248-6.306
		c-0.579-2.126-0.368-4.796-0.163-7.378c0.139-1.758,0.27-3.411,0.146-4.778c-0.078-0.863-0.512-2.192-1.014-3.725
		c-1.426-4.362-3.38-10.333,0.644-12.871c1.457-0.923,2.851-1.367,4.263-1.367c1.53,0,2.804,0.538,3.826,0.972
		c0.729,0.308,1.358,0.577,1.877,0.577s1.148-0.27,1.877-0.577c1.022-0.434,2.296-0.972,3.827-0.972
		c1.411,0,2.805,0.444,4.263,1.367c4.023,2.538,2.069,8.509,0.643,12.871c-0.502,1.532-0.935,2.861-1.014,3.725
		c-0.124,1.367,0.008,3.021,0.146,4.778c0.204,2.582,0.415,5.252-0.163,7.378c-0.359,1.312-1.014,2.505-1.703,3.488
		C40.425,38.178,45,30.872,45,22.5C45,10.075,34.926,0,22.499,0z"/>
	<path fill-rule="evenodd" clip-rule="evenodd" fill="#97BFDA" d="M35.322,22.347c1.314-4.016,3.114-9.52-0.183-11.602
		c-1.275-0.802-2.478-1.192-3.674-1.192c-1.307,0-2.417,0.467-3.397,0.885c-0.804,0.341-1.563,0.664-2.307,0.664
		c-0.742,0-1.502-0.323-2.308-0.664c-0.979-0.418-2.089-0.885-3.396-0.885c-1.197,0-2.399,0.391-3.675,1.192
		c-3.296,2.082-1.497,7.586-0.184,11.602c0.523,1.599,0.975,2.978,1.063,3.966c0.134,1.456,7.042,1.099,8.498,1.099
		c1.457,0,3.853,2.269,5.186,5.938c1.129,3.109,0.855,7.284,0.58,9.558c0.947-1.032,2.223-2.702,2.749-4.63
		c0.528-1.939,0.325-4.516,0.128-7.004c-0.143-1.802-0.277-3.505-0.145-4.961C34.349,25.324,34.8,23.939,35.322,22.347z"/>
</g>
</svg>
