<?xml version="1.0" encoding="utf-8"?>
<!-- Generator: Adobe Illustrator 15.1.0, SVG Export Plug-In . SVG Version: 6.00 Build 0)  -->
<!DOCTYPE svg PUBLIC "-//W3C//DTD SVG 1.1//EN" "http://www.w3.org/Graphics/SVG/1.1/DTD/svg11.dtd">
<svg version="1.1" id="Ebene_1" xmlns="http://www.w3.org/2000/svg" xmlns:xlink="http://www.w3.org/1999/xlink" x="0px" y="0px"
	 width="45px" height="45px" viewBox="0 0 45 45" enable-background="new 0 0 45 45" xml:space="preserve">
<g>
	<path fill-rule="evenodd" clip-rule="evenodd" fill="#97BFDA" d="M24.805,16.302c0.844-0.844,0.448-3.605-0.042-5.366
		c-0.428-0.126-0.864-0.31-1.315-0.5c-0.979-0.415-2.089-0.886-3.394-0.886c-1.196,0-2.397,0.391-3.672,1.194
		c-2.347,1.481-2.108,4.698-1.303,7.877c1.432,0.623,3.354,1.1,3.758,0.373c0.607-1.094,1.977-1.386,3.301-1.669
		C23.165,17.105,24.228,16.878,24.805,16.302z"/>
	<path fill-rule="evenodd" clip-rule="evenodd" fill="#97BFDA" d="M29.897,33.706c-1.241-3.421-3.358-5.209-4.146-5.209
		c-0.786,0-2.903,1.788-4.145,5.209c-1.492,4.108-0.302,10.547-0.29,10.611c0.044,0.229-0.061,0.459-0.261,0.577
		c-0.037,0.021-0.075,0.039-0.115,0.052C21.456,44.981,21.977,45,22.5,45c2.743,0,5.37-0.491,7.801-1.39
		C30.563,41.819,31.099,37.013,29.897,33.706z"/>
	<path fill-rule="evenodd" clip-rule="evenodd" fill="#97BFDA" d="M22.5,0C10.074,0,0,10.073,0,22.5
		c0,11.764,9.028,21.418,20.533,22.414c-0.038-0.019-0.074-0.042-0.107-0.069c-0.133-0.109-3.271-2.734-4.244-6.305
		c-0.578-2.123-0.367-4.791-0.163-7.371c0.139-1.753,0.271-3.409,0.146-4.774c-0.078-0.863-0.511-2.187-1.013-3.718
		c-0.335-1.024-0.697-2.138-1.007-3.274c-0.01-0.005-0.022-0.011-0.03-0.016l0.017-0.034c-0.995-3.686-1.398-7.607,1.663-9.54
		c1.456-0.918,2.849-1.364,4.26-1.364c1.529,0,2.801,0.539,3.823,0.973c0.729,0.309,1.357,0.575,1.875,0.575
		c0.519,0,1.147-0.267,1.876-0.575c1.022-0.434,2.295-0.973,3.824-0.973c1.41,0,2.803,0.446,4.258,1.364
		c4.021,2.537,2.068,8.506,0.644,12.864c-0.502,1.532-0.935,2.855-1.013,3.718c-0.125,1.366,0.007,3.023,0.146,4.776
		c0.204,2.579,0.415,5.246-0.162,7.369c-0.367,1.345-1.041,2.555-1.745,3.547C40.398,38.222,45,30.898,45,22.5
		C45,10.073,34.927,0,22.5,0z"/>
</g>
</svg>
