<?xml version="1.0" encoding="utf-8"?>
<!-- Generator: Adobe Illustrator 15.1.0, SVG Export Plug-In . SVG Version: 6.00 Build 0)  -->
<!DOCTYPE svg PUBLIC "-//W3C//DTD SVG 1.1//EN" "http://www.w3.org/Graphics/SVG/1.1/DTD/svg11.dtd">
<svg version="1.1" id="Ebene_1" xmlns="http://www.w3.org/2000/svg" xmlns:xlink="http://www.w3.org/1999/xlink" x="0px" y="0px"
	 width="45px" height="45px" viewBox="0 0 45 45" enable-background="new 0 0 45 45" xml:space="preserve">
<g>
	<path fill-rule="evenodd" clip-rule="evenodd" fill="#97BFDA" d="M22.5,0C10.074,0,0,10.074,0,22.5C0,34.927,10.074,45,22.5,45
		c0.362,0,0.722-0.009,1.079-0.025v-1.804h0.881v-1.346h-2.919v-1.923h2.919v-1.346h-4.835v-1.923h4.835v-1.346h-6.394v-1.923h6.394
		V31.73h-9.085v-7.595h0.117c-0.083-0.257-0.168-0.518-0.257-0.788c-1.493-4.563-3.537-10.813,0.673-13.47
		c1.524-0.962,2.983-1.43,4.46-1.43c1.601,0,2.934,0.564,4.004,1.019c0.763,0.323,1.421,0.604,1.963,0.604
		c0.543,0,1.202-0.28,1.965-0.604c1.07-0.454,2.402-1.019,4.004-1.019c1.477,0,2.935,0.468,4.46,1.43
		c4.209,2.656,2.165,8.906,0.672,13.47c-0.089,0.27-0.174,0.531-0.256,0.788h0.115v7.595h-9.085v1.635h6.394v1.923h-6.394v1.346
		h4.836v1.923h-4.836v1.346h2.919v1.923h-2.919v1.346h0.882v0.849C38.302,41.202,45,32.634,45,22.5C45,10.074,34.927,0,22.5,0z"/>
	<path fill-rule="evenodd" clip-rule="evenodd" fill="#97BFDA" d="M36.338,22.988c1.375-4.203,3.258-9.958-0.191-12.135
		c-1.334-0.842-2.592-1.252-3.844-1.252c-1.367,0-2.529,0.493-3.555,0.928c-0.841,0.357-1.637,0.694-2.414,0.694
		c-0.776,0-1.571-0.337-2.413-0.694c-1.026-0.435-2.188-0.928-3.554-0.928c-1.252,0-2.51,0.41-3.844,1.252
		c-3.45,2.177-1.566,7.933-0.192,12.136c0.13,0.396,0.254,0.778,0.372,1.146h19.263C36.083,23.768,36.209,23.385,36.338,22.988z"/>
</g>
</svg>
