<?xml version="1.0" encoding="UTF-8"?>
<svg width="47px" height="47px" viewBox="0 0 47 47" version="1.1" xmlns="http://www.w3.org/2000/svg" xmlns:xlink="http://www.w3.org/1999/xlink">
    <!-- Generator: Sketch 40.1 (33804) - http://www.bohemiancoding.com/sketch -->
    <title>kieferorthopaedie</title>
    <desc>Created with Sketch.</desc>
    <defs></defs>
    <g id="Page-1" stroke="none" stroke-width="1" fill="none" fill-rule="evenodd">
        <g id="kieferorthopaedie" transform="translate(1.000000, 0.000000)" stroke="#616161">
            <g id="Ebene_1">
                <g id="Group">
                    <path d="M13.2,22.1 C13.2,22.1 18.6,30.9 32.1,30.9 C37,30.9 40.8,29.8 43.7,28.3 C44,26.8 44.2,25.3 44.2,23.7 C40.8,24.3 36.5,24.9 32.1,24.9 C22.4,24.8 13.2,22.1 13.2,22.1 L13.2,22.1 Z" id="Combined-Shape"></path>
                    <path d="M43.9423334,16.6627148 C43.961556,16.6705798 43.980778,16.67847 44,16.686385 C41.1079812,7.49389671 32.6384977,0.883568075 22.5164319,0.883568075 C10.1220657,0.883568075 0,11.0056338 0,23.4 C0,23.4166288 1.82196812e-05,23.4332535 5.46400868e-05,23.449874 C1.82207961e-05,23.4665796 0,23.4832877 0,23.5 C0,35.9264069 10.0735931,46 22.5,46 C34.9264069,46 45,35.9264069 45,23.5 C45,21.1161459 44.6292744,18.8188795 43.9423315,16.662709 Z M43.9423334,16.6627148 C42.2056379,15.9521351 40.4645181,15.4469484 38.3192488,15.4469484 C33.258216,15.4469484 32.4319249,18.5455399 32.4319249,18.5455399 C32.4319249,18.5455399 31.5023474,15.4469484 26.5446009,15.4469484 C21.5868545,15.4469484 18.6948357,18.1323944 14.3568075,19.5784038 C10.5352113,20.8178404 7.74647887,19.5784038 7.74647887,19.5784038 C7.74647887,19.5784038 10.0187793,22.057277 13.0140845,25.8788732 C16.0093897,29.8037559 22.2065728,40.2356808 32.4319249,40.2356808 C34.8075117,40.2356808 36.9765258,39.6159624 39.0422535,38.5830986 C35.0140845,43.1276995 29.1267606,45.9164319 22.5164319,45.9164319 C10.1386945,45.9164319 0.0271644149,35.8215083 5.46400868e-05,23.449874 C0.0271002987,11.0465153 10.0903055,1 22.5,1 C32.5425528,1 41.0484213,7.57932764 43.9423315,16.662709 Z" id="Combined-Shape"></path>
                </g>
            </g>
        </g>
    </g>
</svg>