<?xml version="1.0" encoding="utf-8"?>
<!-- Generator: Adobe Illustrator 21.1.0, SVG Export Plug-In . SVG Version: 6.00 Build 0)  -->
<svg version="1.1" id="Ebene_1" xmlns="http://www.w3.org/2000/svg" xmlns:xlink="http://www.w3.org/1999/xlink" x="0px" y="0px"
	 viewBox="0 0 45 45" style="enable-background:new 0 0 45 45;" xml:space="preserve">
<style type="text/css">
	.st0{fill:#97BFDA;}
</style>
<g>
	<path class="st0" d="M13.2,21.1c0,0,5.4,8.8,18.9,8.8c4.9,0,8.7-1.1,11.6-2.6c0.3-1.5,0.5-3,0.5-4.6c-3.4,0.6-7.7,1.2-12.1,1.2
		C22.4,23.8,13.2,21.1,13.2,21.1z"/>
	<path class="st0" d="M32.2,38.7c-9.9,0-15.9-10.1-18.8-13.9c-2.9-3.7-5.1-6.1-5.1-6.1s2.7,1.2,6.4,0c4.2-1.4,7-4,11.8-4
		c4.8,0,5.7,3,5.7,3s0.8-3,5.7-3c2.1,0,3.8,0.5,5.5,1.2c-2.8-8.9-11-15.3-20.8-15.3c-12,0-21.8,9.8-21.8,21.8s9.8,21.8,21.8,21.8
		c6.4,0,12.1-2.7,16-7.1C36.6,38.1,34.5,38.7,32.2,38.7z"/>
</g>
</svg>
