<?xml version="1.0" encoding="utf-8"?>
<!-- Generator: Adobe Illustrator 15.1.0, SVG Export Plug-In . SVG Version: 6.00 Build 0)  -->
<!DOCTYPE svg PUBLIC "-//W3C//DTD SVG 1.1//EN" "http://www.w3.org/Graphics/SVG/1.1/DTD/svg11.dtd">
<svg version="1.1" id="Ebene_1" xmlns="http://www.w3.org/2000/svg" xmlns:xlink="http://www.w3.org/1999/xlink" x="0px" y="0px"
	 width="45px" height="45px" viewBox="0 0 45 45" enable-background="new 0 0 45 45" xml:space="preserve">
<g>
	<path fill-rule="evenodd" clip-rule="evenodd" fill="#97BFDA" d="M25.871,27.427c1.457,0,3.855,2.273,5.189,5.944
		c1.131,3.113,0.856,7.289,0.58,9.568c0.949-1.036,2.226-2.706,2.752-4.64c0.529-1.94,0.325-4.516,0.128-7.005
		c-0.143-1.805-0.278-3.509-0.145-4.97c0.089-0.989,0.541-2.37,1.063-3.969c1.315-4.021,3.117-9.525-0.183-11.608
		c-1.277-0.805-2.479-1.196-3.678-1.196c-1.308,0-2.419,0.472-3.399,0.887c-0.805,0.342-1.565,0.664-2.309,0.664
		s-1.504-0.322-2.311-0.664c-0.979-0.415-2.091-0.887-3.399-0.887c-1.197,0-2.4,0.392-3.677,1.196
		c-3.299,2.083-1.498,7.589-0.183,11.609c0.523,1.599,0.975,2.979,1.064,3.968c0.133,1.462-0.001,3.167-0.145,4.972
		c-0.197,2.489-0.401,5.062,0.127,7.003c0.527,1.934,1.803,3.604,2.752,4.64c-0.276-2.279-0.549-6.455,0.581-9.568
		C22.015,29.7,24.413,27.427,25.871,27.427z M29.615,14.749c0.798,0,1.444,0.646,1.444,1.444s-0.646,1.444-1.444,1.444
		s-1.444-0.646-1.444-1.444S28.817,14.749,29.615,14.749z M29.122,22.762c-1.797,1.797-4.706,1.797-6.503,0H29.122z M22.126,14.749
		c0.798,0,1.445,0.646,1.445,1.444s-0.647,1.444-1.445,1.444s-1.445-0.646-1.445-1.444S21.329,14.749,22.126,14.749z"/>
	<path fill-rule="evenodd" clip-rule="evenodd" fill="#97BFDA" d="M30.023,33.748c-1.245-3.426-3.365-5.218-4.152-5.218
		c-0.788,0-2.909,1.792-4.153,5.218c-1.496,4.121-0.302,10.565-0.29,10.63c0.044,0.229-0.061,0.46-0.26,0.577
		c-0.003,0.002-0.006,0.003-0.009,0.005C21.603,44.986,22.05,45,22.5,45c2.796,0,5.473-0.511,7.943-1.442
		C30.71,41.681,31.2,36.99,30.023,33.748z"/>
	<path fill-rule="evenodd" clip-rule="evenodd" fill="#97BFDA" d="M22.5,0C10.074,0,0,10.073,0,22.5
		c0,11.768,9.036,21.426,20.547,22.416c-0.004-0.004-0.008-0.007-0.012-0.01c-0.133-0.11-3.276-2.739-4.251-6.315
		c-0.579-2.127-0.368-4.798-0.163-7.381c0.139-1.757,0.27-3.417,0.146-4.785c-0.079-0.864-0.512-2.189-1.015-3.725
		c-1.428-4.364-3.383-10.344,0.644-12.885c1.458-0.92,2.854-1.367,4.266-1.367c1.532,0,2.807,0.54,3.831,0.975
		c0.729,0.309,1.359,0.576,1.879,0.576c0.519,0,1.149-0.268,1.878-0.576c1.023-0.435,2.298-0.975,3.83-0.975
		c1.413,0,2.808,0.447,4.267,1.367c4.027,2.541,2.071,8.52,0.644,12.884c-0.503,1.535-0.936,2.861-1.016,3.726
		c-0.123,1.368,0.009,3.026,0.147,4.782c0.204,2.585,0.415,5.257-0.163,7.384c-0.341,1.248-0.945,2.381-1.594,3.332
		C40.526,38.017,45,30.78,45,22.5C45,10.073,34.927,0,22.5,0z"/>
</g>
</svg>
