<?xml version="1.0" encoding="utf-8"?>
<!-- Generator: Adobe Illustrator 15.1.0, SVG Export Plug-In . SVG Version: 6.00 Build 0)  -->
<!DOCTYPE svg PUBLIC "-//W3C//DTD SVG 1.1//EN" "http://www.w3.org/Graphics/SVG/1.1/DTD/svg11.dtd">
<svg version="1.1" id="Ebene_1" xmlns="http://www.w3.org/2000/svg" xmlns:xlink="http://www.w3.org/1999/xlink" x="0px" y="0px"
	 width="45px" height="45px" viewBox="0 0 45 45" enable-background="new 0 0 45 45" xml:space="preserve">
<g>
	<path fill-rule="evenodd" clip-rule="evenodd" fill="#97BFDA" d="M25.893,28.567c-0.789,0-2.914,1.795-4.159,5.227
		c-0.115,0.316-0.214,0.646-0.299,0.985c0.087,0.019,0.175,0.063,0.255,0.14c1.313,1.254,3.039,2.176,4.894,2.204
		c0.741,0.012,1.242-0.173,1.853-0.557c0.646-0.406,1.289-0.774,2.038-0.96c0.018-0.005,0.035-0.008,0.052-0.011
		c-0.113-0.629-0.268-1.237-0.473-1.802C28.806,30.362,26.682,28.567,25.893,28.567z"/>
	<path fill-rule="evenodd" clip-rule="evenodd" fill="#97BFDA" d="M35.479,22.382c1.318-4.027,3.123-9.542-0.184-11.629
		c-1.278-0.807-2.483-1.199-3.684-1.199c-1.31,0-2.423,0.473-3.405,0.889c-0.807,0.343-1.568,0.666-2.313,0.666
		c-0.744,0-1.506-0.323-2.313-0.666c-0.981-0.416-2.095-0.889-3.405-0.889c-1.199,0-2.405,0.393-3.684,1.199
		c-3.306,2.087-1.501,7.603-0.185,11.63c0.524,1.602,0.977,2.984,1.066,3.976c0.134,1.464-0.002,3.172-0.145,4.98
		c-0.197,2.493-0.402,5.071,0.128,7.016c0.527,1.937,1.807,3.609,2.756,4.647c-0.276-2.283-0.55-6.467,0.582-9.585
		c1.337-3.679,3.739-5.955,5.199-5.955s3.862,2.276,5.199,5.955c1.133,3.118,0.858,7.302,0.582,9.585
		c0.949-1.038,2.229-2.711,2.756-4.647c0.303-1.109,0.366-2.425,0.328-3.813c-0.022-0.079-0.026-0.164-0.008-0.248
		c-0.035-0.969-0.114-1.97-0.192-2.957c-0.143-1.807-0.278-3.514-0.145-4.978C34.502,25.367,34.955,23.983,35.479,22.382z"/>
	<path fill-rule="evenodd" clip-rule="evenodd" fill="#97BFDA" d="M16.289,38.646c-0.32-1.177-0.399-2.52-0.371-3.923
		c-0.442-0.948-1.114-1.827-2.124-2.205c-0.272-0.102-0.455-0.357-0.373-0.657c0.072-0.262,0.385-0.476,0.657-0.373
		c0.773,0.289,1.414,0.772,1.926,1.378c0.036-0.538,0.079-1.078,0.121-1.614c0.14-1.76,0.271-3.423,0.146-4.793
		c-0.078-0.866-0.513-2.193-1.017-3.731c-1.43-4.373-3.39-10.362,0.646-12.908c1.461-0.922,2.858-1.37,4.273-1.37
		c1.534,0,2.812,0.541,3.837,0.977c0.73,0.31,1.362,0.578,1.882,0.578s1.151-0.269,1.882-0.578c1.025-0.436,2.303-0.977,3.837-0.977
		c1.415,0,2.812,0.448,4.274,1.37c4.034,2.546,2.075,8.535,0.645,12.907c-0.504,1.538-0.938,2.866-1.017,3.732
		c-0.124,1.37,0.008,3.031,0.147,4.79c0.054,0.691,0.109,1.389,0.149,2.08c0.262-0.144,0.536-0.265,0.809-0.372
		c0.717-0.28,1.473-0.463,2.234-0.569c1.209-0.168,2.599-0.262,3.792,0.146C44.152,29.513,45,26.105,45,22.501
		C45,10.074,34.927,0,22.5,0C10.074,0,0,10.074,0,22.501C0,34.244,8.997,43.887,20.475,44.91
		C19.978,44.482,17.196,41.974,16.289,38.646z"/>
	<path fill-rule="evenodd" clip-rule="evenodd" fill="#97BFDA" d="M41.981,33.462c-0.086-0.019-0.173-0.037-0.26-0.052
		c-0.016-0.003-0.168-0.026-0.15-0.024c-0.146-0.019-0.293-0.033-0.439-0.043c-0.701-0.044-1.472-0.008-2.122,0.094
		c-0.717,0.112-1.433,0.279-2.106,0.551c-0.355,0.143-0.735,0.34-1.039,0.593c0.037,1.455-0.036,2.85-0.367,4.065
		c-0.325,1.192-0.891,2.279-1.506,3.203c3.392-2.019,6.207-4.903,8.142-8.349C42.082,33.486,42.032,33.474,41.981,33.462z"/>
	<path fill-rule="evenodd" clip-rule="evenodd" fill="#97BFDA" d="M30.68,36.658c-0.717,0.195-1.273,0.587-1.928,0.967
		c-0.741,0.431-1.557,0.623-2.413,0.555c-1.952-0.153-3.69-0.973-5.135-2.256c-0.616,3.904,0.229,8.465,0.238,8.52
		c0.038,0.197-0.035,0.396-0.185,0.523C21.669,44.988,22.083,45,22.5,45c2.812,0,5.503-0.516,7.984-1.457
		C30.68,42.142,30.977,39.323,30.68,36.658z"/>
</g>
</svg>
