<?xml version="1.0" encoding="utf-8"?>
<!-- Generator: Adobe Illustrator 15.1.0, SVG Export Plug-In . SVG Version: 6.00 Build 0)  -->
<!DOCTYPE svg PUBLIC "-//W3C//DTD SVG 1.1//EN" "http://www.w3.org/Graphics/SVG/1.1/DTD/svg11.dtd">
<svg version="1.1" id="Ebene_1" xmlns="http://www.w3.org/2000/svg" xmlns:xlink="http://www.w3.org/1999/xlink" x="0px" y="0px"
	 width="45px" height="45px" viewBox="0 0 45 45" enable-background="new 0 0 45 45" xml:space="preserve">
<g>
	<path fill="#97BFDA" d="M36.97,21.455c-2.41-1.886-5.796-2.122-8.418-0.497c-2.487,1.537-3.752,4.531-3.083,7.312
		c0.675,2.797,3.13,4.944,6.086,5.296c3.003,0.36,5.934-1.247,7.257-3.853C40.192,26.942,39.465,23.413,36.97,21.455z"/>
	<path fill="#97BFDA" d="M30.149,42.792c-0.026-0.185-0.055-0.369-0.077-0.553c-0.183-0.031-0.366-0.055-0.549-0.08
		c-0.258-0.037-0.511-0.089-0.765-0.152c-0.356-0.091-0.714-0.183-1.071-0.272c-0.317-0.08-0.812,0.923-1.005,1.181
		c-0.342,0.459-0.4,0.646-0.97,0.652c-0.641,0.008-1.256-0.202-1.808-0.508c-0.438-0.241-0.828-0.576-1.099-0.992
		c-0.228-0.345,0.018-0.726,0.128-1.101c0.124-0.413,0.255-0.823,0.396-1.234c-0.023-0.055-0.196-0.139-0.247-0.175
		c-0.259-0.187-0.52-0.377-0.781-0.563c-0.301-0.217-0.569-0.467-0.843-0.708c-0.207-0.182-0.253-0.051-0.469,0.071
		c-0.166,0.097-0.333,0.189-0.5,0.284c-0.321,0.176-0.959,0.703-1.331,0.587c-1.092-0.35-1.965-1.365-2.236-2.427
		c-0.138-0.545,0.052-0.646,0.44-1.071c0.256-0.279,0.516-0.555,0.78-0.824c0.176-0.179,0.311-0.188,0.166-0.419
		c-0.093-0.154-0.181-0.311-0.265-0.469c-0.194-0.374-0.384-0.75-0.558-1.13c-0.074-0.165-0.143-0.331-0.201-0.5
		c-0.191,0.016-0.382,0.032-0.572,0.048c-0.385,0.031-0.769,0.053-1.153,0.069c-0.15,0.008-0.498,0.087-0.621-0.008
		c-0.782-0.588-1.108-1.748-1.065-2.659c0.016-0.354,0.097-0.687,0.227-1.015c0.052-0.131,0.738-0.315,0.882-0.372
		c0.357-0.143,0.719-0.277,1.082-0.408c0.247-0.087,0.179-0.12,0.167-0.356c-0.011-0.19-0.02-0.382-0.03-0.571
		c-0.01-0.201-0.018-0.396-0.008-0.599c0.017-0.339,0.034-0.68,0.051-1.02c0.005-0.085-1.777-0.689-1.969-0.772
		c-0.312-0.134-0.341-0.506-0.382-0.815c-0.082-0.616,0.018-1.254,0.261-1.828c0.165-0.39,0.399-0.772,0.722-1.061
		c0.274-0.244,1.102-0.041,1.454-0.017c0.254,0.016,0.509,0.037,0.764,0.059c0.285,0.026,0.222-0.088,0.32-0.318
		c0.14-0.331,0.306-0.65,0.467-0.973c0.159-0.324,0.326-0.643,0.527-0.944c-0.268-0.266-0.53-0.537-0.787-0.812
		c-0.324-0.346-0.825-0.657-0.744-1.152c0.091-0.56,0.375-1.082,0.73-1.522c0.379-0.448,0.859-0.831,1.416-1.05
		c0.428-0.167,0.743,0.144,1.127,0.351c0.395,0.212,0.784,0.432,1.169,0.66c0.277-0.235,0.538-0.491,0.827-0.713
		c0.256-0.199,0.523-0.38,0.787-0.57c0.129-0.093,0.259-0.187,0.388-0.279c0.044-0.033-0.251-0.792-0.279-0.885
		c-0.103-0.33-0.479-1.043-0.302-1.354c0.519-0.915,1.664-1.509,2.717-1.588c0.497-0.038,0.708-0.039,0.997,0.339
		c0.136,0.178,0.994,1.542,1.129,1.508c0.357-0.089,0.713-0.181,1.071-0.272c0.167-0.041,0.334-0.085,0.502-0.118
		c0.184-0.035,0.366-0.06,0.549-0.085c0.255-0.036,0.354,0.031,0.389-0.241c0.061-0.433,0.131-0.862,0.207-1.291
		c0.026-0.15,0.043-0.661,0.159-0.756c0.237-0.19,0.56-0.305,0.848-0.388c0.956-0.278,2.18-0.218,3.012,0.373
		c0.15,0.105,0.154,0.598,0.183,0.771c0.067,0.367,0.13,0.737,0.181,1.106c0.035,0.241-0.04,0.357,0.234,0.399
		c0.182,0.027,0.368,0.05,0.549,0.079c0.21,0.034,0.422,0.083,0.626,0.136c0.36,0.091,0.725,0.183,1.087,0.277
		c0.209,0.052,0.897-1.139,1.061-1.347c0.332-0.442,0.406-0.519,0.966-0.503c0.651,0.017,1.287,0.253,1.833,0.587
		c0.4,0.244,0.754,0.571,0.997,0.965c0.208,0.335-0.111,0.876-0.217,1.226c-0.032,0.11-0.384,1.024-0.333,1.062
		c0.103,0.073,0.207,0.147,0.312,0.223c0.237,0.171,0.48,0.341,0.716,0.517c0.348,0.245,0.65,0.547,0.974,0.822
		c0.33-0.195,0.663-0.385,0.999-0.569c0.152-0.082,0.33-0.212,0.513-0.318C41.64,5.984,33.18,0,23.275,0C10.42,0,0,10.074,0,22.5
		S10.42,45,23.275,45c2.464,0,4.839-0.371,7.069-1.058c-0.004-0.015-0.006-0.028-0.008-0.043
		C30.268,43.531,30.204,43.162,30.149,42.792z"/>
</g>
<g>
	<path fill="#97BFDA" d="M36.97,21.455c-2.41-1.886-5.796-2.122-8.418-0.497c-2.487,1.537-3.752,4.531-3.083,7.312
		c0.675,2.797,3.13,4.944,6.086,5.296c3.003,0.36,5.934-1.247,7.257-3.853C40.192,26.942,39.465,23.413,36.97,21.455z"/>
	<path fill="#97BFDA" d="M30.149,42.792c-0.026-0.185-0.055-0.369-0.077-0.553c-0.183-0.031-0.366-0.055-0.549-0.08
		c-0.258-0.037-0.511-0.089-0.765-0.152c-0.356-0.091-0.714-0.183-1.071-0.272c-0.317-0.08-0.812,0.923-1.005,1.181
		c-0.342,0.459-0.4,0.646-0.97,0.652c-0.641,0.008-1.256-0.202-1.808-0.508c-0.438-0.241-0.828-0.576-1.099-0.992
		c-0.228-0.345,0.018-0.726,0.128-1.101c0.124-0.413,0.255-0.823,0.396-1.234c-0.023-0.055-0.196-0.139-0.247-0.175
		c-0.259-0.187-0.52-0.377-0.781-0.563c-0.301-0.217-0.569-0.467-0.843-0.708c-0.207-0.182-0.253-0.051-0.469,0.071
		c-0.166,0.097-0.333,0.189-0.5,0.284c-0.321,0.176-0.959,0.703-1.331,0.587c-1.092-0.35-1.965-1.365-2.236-2.427
		c-0.138-0.545,0.052-0.646,0.44-1.071c0.256-0.279,0.516-0.555,0.78-0.824c0.176-0.179,0.311-0.188,0.166-0.419
		c-0.093-0.154-0.181-0.311-0.265-0.469c-0.194-0.374-0.384-0.75-0.558-1.13c-0.074-0.165-0.143-0.331-0.201-0.5
		c-0.191,0.016-0.382,0.032-0.572,0.048c-0.385,0.031-0.769,0.053-1.153,0.069c-0.15,0.008-0.498,0.087-0.621-0.008
		c-0.782-0.588-1.108-1.748-1.065-2.659c0.016-0.354,0.097-0.687,0.227-1.015c0.052-0.131,0.738-0.315,0.882-0.372
		c0.357-0.143,0.719-0.277,1.082-0.408c0.247-0.087,0.179-0.12,0.167-0.356c-0.011-0.19-0.02-0.382-0.03-0.571
		c-0.01-0.201-0.018-0.396-0.008-0.599c0.017-0.339,0.034-0.68,0.051-1.02c0.005-0.085-1.777-0.689-1.969-0.772
		c-0.312-0.134-0.341-0.506-0.382-0.815c-0.082-0.616,0.018-1.254,0.261-1.828c0.165-0.39,0.399-0.772,0.722-1.061
		c0.274-0.244,1.102-0.041,1.454-0.017c0.254,0.016,0.509,0.037,0.764,0.059c0.285,0.026,0.222-0.088,0.32-0.318
		c0.14-0.331,0.306-0.65,0.467-0.973c0.159-0.324,0.326-0.643,0.527-0.944c-0.268-0.266-0.53-0.537-0.787-0.812
		c-0.324-0.346-0.825-0.657-0.744-1.152c0.091-0.56,0.375-1.082,0.73-1.522c0.379-0.448,0.859-0.831,1.416-1.05
		c0.428-0.167,0.743,0.144,1.127,0.351c0.395,0.212,0.784,0.432,1.169,0.66c0.277-0.235,0.538-0.491,0.827-0.713
		c0.256-0.199,0.523-0.38,0.787-0.57c0.129-0.093,0.259-0.187,0.388-0.279c0.044-0.033-0.251-0.792-0.279-0.885
		c-0.103-0.33-0.479-1.043-0.302-1.354c0.519-0.915,1.664-1.509,2.717-1.588c0.497-0.038,0.708-0.039,0.997,0.339
		c0.136,0.178,0.994,1.542,1.129,1.508c0.357-0.089,0.713-0.181,1.071-0.272c0.167-0.041,0.334-0.085,0.502-0.118
		c0.184-0.035,0.366-0.06,0.549-0.085c0.255-0.036,0.354,0.031,0.389-0.241c0.061-0.433,0.131-0.862,0.207-1.291
		c0.026-0.15,0.043-0.661,0.159-0.756c0.237-0.19,0.56-0.305,0.848-0.388c0.956-0.278,2.18-0.218,3.012,0.373
		c0.15,0.105,0.154,0.598,0.183,0.771c0.067,0.367,0.13,0.737,0.181,1.106c0.035,0.241-0.04,0.357,0.234,0.399
		c0.182,0.027,0.368,0.05,0.549,0.079c0.21,0.034,0.422,0.083,0.626,0.136c0.36,0.091,0.725,0.183,1.087,0.277
		c0.209,0.052,0.897-1.139,1.061-1.347c0.332-0.442,0.406-0.519,0.966-0.503c0.651,0.017,1.287,0.253,1.833,0.587
		c0.4,0.244,0.754,0.571,0.997,0.965c0.208,0.335-0.111,0.876-0.217,1.226c-0.032,0.11-0.384,1.024-0.333,1.062
		c0.103,0.073,0.207,0.147,0.312,0.223c0.237,0.171,0.48,0.341,0.716,0.517c0.348,0.245,0.65,0.547,0.974,0.822
		c0.33-0.195,0.663-0.385,0.999-0.569c0.152-0.082,0.33-0.212,0.513-0.318C41.64,5.984,33.18,0,23.275,0C10.42,0,0,10.074,0,22.5
		S10.42,45,23.275,45c2.464,0,4.839-0.371,7.069-1.058c-0.004-0.015-0.006-0.028-0.008-0.043
		C30.268,43.531,30.204,43.162,30.149,42.792z"/>
</g>
</svg>
