<?xml version="1.0" encoding="UTF-8"?>
<svg width="48px" height="47px" viewBox="0 0 48 47" version="1.1" xmlns="http://www.w3.org/2000/svg" xmlns:xlink="http://www.w3.org/1999/xlink">
    <!-- Generator: Sketch 40.1 (33804) - http://www.bohemiancoding.com/sketch -->
    <title>Group</title>
    <desc>Created with Sketch.</desc>
    <defs></defs>
    <g id="Page-1" stroke="none" stroke-width="1" fill="none" fill-rule="evenodd">
        <g id="technik" transform="translate(1.000000, 1.000000)" stroke="#616161">
            <g id="Ebene_1">
                <g id="Group">
                    <path d="M22.6416023,0.0027357561 C10.1043227,0.194255727 0,10.4171324 0,23 C0,29.3074517 2.53895977,35.0218976 6.65061575,39.1770741 C10.7809776,42.7955374 16.261567,45 22.275,45 C24.739,45 27.114,44.629 29.344,43.942 C29.34,43.927 29.338,43.914 29.336,43.899 C29.268,43.531 29.204,43.162 29.149,42.792 C29.123,42.607 29.094,42.423 29.072,42.239 C28.889,42.208 28.706,42.184 28.523,42.159 C28.265,42.122 28.012,42.07 27.758,42.007 C27.402,41.916 27.044,41.824 26.687,41.735 C26.37,41.655 25.875,42.658 25.682,42.916 C25.34,43.375 25.282,43.562 24.712,43.568 C24.071,43.576 23.456,43.366 22.904,43.06 C22.466,42.819 22.076,42.484 21.805,42.068 C21.577,41.723 21.823,41.342 21.933,40.967 C22.057,40.554 22.188,40.144 22.329,39.733 C22.306,39.678 22.133,39.594 22.082,39.558 C21.823,39.371 21.562,39.181 21.301,38.995 C21,38.778 20.732,38.528 20.458,38.287 C20.251,38.105 20.205,38.236 19.989,38.358 C19.823,38.455 19.656,38.547 19.489,38.642 C19.168,38.818 18.53,39.345 18.158,39.229 C17.066,38.879 16.193,37.864 15.922,36.802 C15.784,36.257 15.974,36.156 16.362,35.731 C16.618,35.452 16.878,35.176 17.142,34.907 C17.318,34.728 17.453,34.719 17.308,34.488 C17.215,34.334 17.127,34.177 17.043,34.019 C16.849,33.645 16.659,33.269 16.485,32.889 C16.411,32.724 16.342,32.558 16.284,32.389 C16.093,32.405 15.902,32.421 15.712,32.437 C15.327,32.468 14.943,32.49 14.559,32.506 C14.409,32.514 14.061,32.593 13.938,32.498 C13.156,31.91 12.83,30.75 12.873,29.839 C12.889,29.485 12.97,29.152 13.1,28.824 C13.152,28.693 13.838,28.509 13.982,28.452 C14.339,28.309 14.701,28.175 15.064,28.044 C15.311,27.957 15.243,27.924 15.231,27.688 C15.22,27.498 15.211,27.306 15.201,27.117 C15.191,26.916 15.183,26.721 15.193,26.518 C15.21,26.179 15.227,25.838 15.244,25.498 C15.249,25.413 13.467,24.809 13.275,24.726 C12.963,24.592 12.934,24.22 12.893,23.911 C12.811,23.295 12.911,22.657 13.154,22.083 C13.319,21.693 13.553,21.311 13.876,21.022 C14.15,20.778 14.978,20.981 15.33,21.005 C15.584,21.021 15.839,21.042 16.094,21.064 C16.379,21.09 16.316,20.976 16.414,20.746 C16.554,20.415 16.72,20.096 16.881,19.773 C17.04,19.449 17.207,19.13 17.408,18.829 C17.14,18.563 16.878,18.292 16.621,18.017 C16.297,17.671 15.796,17.36 15.877,16.865 C15.968,16.305 16.252,15.783 16.607,15.343 C16.986,14.895 17.466,14.512 18.023,14.293 C18.451,14.126 18.766,14.437 19.15,14.644 C19.545,14.856 19.934,15.076 20.319,15.304 C20.596,15.069 20.857,14.813 21.146,14.591 C21.402,14.392 21.669,14.211 21.933,14.021 C22.062,13.928 22.192,13.834 22.321,13.742 C22.365,13.709 22.07,12.95 22.042,12.857 C21.939,12.527 21.563,11.814 21.74,11.503 C22.259,10.588 23.404,9.994 24.457,9.915 C24.954,9.877 25.165,9.876 25.454,10.254 C25.59,10.432 26.448,11.796 26.583,11.762 C26.94,11.673 27.296,11.581 27.654,11.49 C27.821,11.449 27.988,11.405 28.156,11.372 C28.34,11.337 28.522,11.312 28.705,11.287 C28.96,11.251 29.059,11.318 29.094,11.046 C29.155,10.613 29.225,10.184 29.301,9.755 C29.327,9.605 29.344,9.094 29.46,8.999 C29.697,8.809 30.02,8.694 30.308,8.611 C31.264,8.333 32.488,8.393 33.32,8.984 C33.47,9.089 33.474,9.582 33.503,9.755 C33.57,10.122 33.633,10.492 33.684,10.861 C33.719,11.102 33.644,11.218 33.918,11.26 C34.1,11.287 34.286,11.31 34.467,11.339 C34.677,11.373 34.889,11.422 35.093,11.475 C35.453,11.566 35.818,11.658 36.18,11.752 C36.389,11.804 37.077,10.613 37.241,10.405 C37.573,9.963 37.647,9.886 38.207,9.902 C38.858,9.919 39.494,10.155 40.04,10.489 C40.44,10.733 40.794,11.06 41.037,11.454 C41.245,11.789 40.926,12.33 40.82,12.68 C40.788,12.79 40.436,13.704 40.487,13.742 C40.59,13.815 40.694,13.889 40.799,13.965 C41.036,14.136 41.279,14.306 41.515,14.482 C41.863,14.727 42.165,15.029 42.489,15.304 C42.819,15.109 43.152,14.919 43.488,14.735 C43.64,14.653 43.818,14.523 44.001,14.417 C40.6815413,6.08823019 32.3883489,0.148296195 22.6416023,0.0027357561 Z M36.97,21.455 C34.56,19.569 31.174,19.333 28.552,20.958 C26.065,22.495 24.8,25.489 25.469,28.27 C26.144,31.067 28.599,33.214 31.555,33.566 C34.558,33.926 37.489,32.319 38.812,29.713 C40.192,26.942 39.465,23.413 36.97,21.455 Z" id="Combined-Shape"></path>
                    <ellipse id="Oval-3" cx="23" cy="22.5" rx="23" ry="22.5"></ellipse>
                </g>
            </g>
        </g>
    </g>
</svg>