<?xml version="1.0" encoding="UTF-8"?>
<svg width="47px" height="47px" viewBox="0 0 47 47" version="1.1" xmlns="http://www.w3.org/2000/svg" xmlns:xlink="http://www.w3.org/1999/xlink">
    <!-- Generator: Sketch 40.1 (33804) - http://www.bohemiancoding.com/sketch -->
    <title>Combined Shape</title>
    <desc>Created with Sketch.</desc>
    <defs></defs>
    <g id="Page-1" stroke="none" stroke-width="1" fill="none" fill-rule="evenodd">
        <g id="zahnersatz" transform="translate(1.000000, 1.000000)" fill="#FFFFFF" stroke="#616161">
            <g id="Ebene_1">
                <path d="M32.575115,42.6236963 C29.544094,44.1441685 26.1219921,45 22.5,45 C10.0735931,45 0,34.9264069 0,22.5 C0,10.0735931 10.0735931,0 22.5,0 C34.9264069,0 45,10.0735931 45,22.5 C45,31.019631 40.2648381,38.4333056 33.2827229,42.2528153 C34.1929694,41.1137599 35.1602944,39.6023047 35.6199002,37.9135617 C36.2166312,35.7221764 35.9862549,32.8160625 35.7648688,30.0043467 C35.6030434,27.9680441 35.4513321,26.0452441 35.6007958,24.3944006 C35.6131575,24.2685364 35.6300143,24.1325581 35.6547376,23.985342 L16.3469482,23.985342 C16.3705477,24.1325581 16.3874045,24.2685364 16.3997662,24.3955243 C16.5503537,26.0452441 16.3975186,27.9702917 16.2356932,30.0065943 C16.0131833,32.8171863 15.7839307,35.7233002 16.379538,37.9135617 C16.976269,40.1004517 18.4158406,41.985043 19.4868098,43.152658 C19.1755208,40.5803089 18.8664793,35.8637736 20.1419778,32.348567 C21.6478528,28.2040395 24.3550564,25.6384331 26.000281,25.6384331 C27.6466294,25.6384331 30.3538329,28.2040395 31.8597079,32.348567 C33.0524169,35.6345803 32.859686,39.9715487 32.5751108,42.6236987 Z M36.496,20.762 L36.354,21.195 C36.28,21.424 36.068,21.578 35.828,21.578 L15.831,21.578 C15.591,21.578 15.378,21.424 15.305,21.195 L15.163,20.762 C13.728,16.379 11.765,10.374 15.809,7.821 C17.274,6.897 18.676,6.448 20.095,6.448 C21.633,6.448 22.913,6.991 23.942,7.427 C24.674,7.738 25.308,8.005 25.829,8.005 C26.35,8.005 26.983,7.737 27.716,7.427 C28.745,6.99 30.026,6.448 31.565,6.448 C32.984,6.448 34.385,6.897 35.85,7.821 C39.895,10.374 37.931,16.378 36.496,20.762 Z" id="Combined-Shape"></path>
            </g>
        </g>
    </g>
</svg>