<?xml version="1.0" encoding="utf-8"?>
<!-- Generator: Adobe Illustrator 15.1.0, SVG Export Plug-In . SVG Version: 6.00 Build 0)  -->
<!DOCTYPE svg PUBLIC "-//W3C//DTD SVG 1.1//EN" "http://www.w3.org/Graphics/SVG/1.1/DTD/svg11.dtd">
<svg version="1.1" id="Ebene_1" xmlns="http://www.w3.org/2000/svg" xmlns:xlink="http://www.w3.org/1999/xlink" x="0px" y="0px"
	 width="45px" height="45px" viewBox="0 0 45 45" enable-background="new 0 0 45 45" xml:space="preserve">
<g>
	<path fill-rule="evenodd" clip-rule="evenodd" fill="#97BFDA" d="M25.829,27.512c1.465,0,3.874,2.283,5.214,5.971
		c1.131,3.116,0.862,7.294,0.586,9.588c0.011-0.005,0.021-0.01,0.031-0.014c0.949-1.043,2.207-2.704,2.729-4.622
		c0.531-1.95,0.326-4.536,0.129-7.038c-0.144-1.812-0.279-3.523-0.146-4.992c0.011-0.112,0.026-0.233,0.048-0.364H17.239
		c0.021,0.131,0.036,0.252,0.047,0.365c0.134,1.468-0.002,3.181-0.146,4.993c-0.198,2.501-0.402,5.087,0.128,7.036
		c0.531,1.946,1.812,3.623,2.765,4.662c-0.277-2.289-0.552-6.486,0.583-9.614C21.956,29.795,24.365,27.512,25.829,27.512z"/>
	<path fill-rule="evenodd" clip-rule="evenodd" fill="#97BFDA" d="M30.001,33.861c-1.25-3.44-3.381-5.241-4.172-5.241
		s-2.921,1.801-4.17,5.241c-1.503,4.135-0.304,10.613-0.291,10.678c0.028,0.153-0.009,0.307-0.096,0.427
		C21.679,44.988,22.089,45,22.5,45c2.797,0,5.475-0.511,7.944-1.443C30.716,41.577,31.151,37.03,30.001,33.861z"/>
	<path fill-rule="evenodd" clip-rule="evenodd" fill="#97BFDA" d="M22.5,0C10.074,0,0,10.073,0,22.5
		c0,11.671,8.887,21.266,20.263,22.39c-0.742-0.664-3.217-3.058-4.063-6.164c-0.582-2.136-0.369-4.819-0.164-7.414
		c0.14-1.765,0.271-3.432,0.146-4.807c-0.021-0.235-0.074-0.527-0.159-0.891c-0.039-0.166-0.001-0.338,0.104-0.473
		c0.104-0.132,0.265-0.209,0.435-0.209h18.535c0.169,0,0.33,0.077,0.435,0.209c0.105,0.135,0.145,0.307,0.105,0.473
		c-0.087,0.364-0.139,0.656-0.16,0.891c-0.125,1.374,0.008,3.04,0.146,4.804c0.206,2.597,0.418,5.28-0.164,7.417
		c-0.312,1.149-0.849,2.201-1.438,3.104C40.597,37.902,45,30.715,45,22.5C45,10.073,34.927,0,22.5,0z M36.496,22.762l-0.142,0.433
		c-0.074,0.229-0.286,0.383-0.526,0.383H15.831c-0.24,0-0.453-0.154-0.526-0.383l-0.142-0.433
		c-1.435-4.383-3.398-10.388,0.646-12.941c1.465-0.924,2.867-1.373,4.286-1.373c1.538,0,2.818,0.543,3.847,0.979
		c0.732,0.311,1.366,0.578,1.887,0.578c0.521,0,1.154-0.268,1.887-0.578c1.029-0.437,2.31-0.979,3.849-0.979
		c1.419,0,2.82,0.449,4.285,1.373C39.895,12.374,37.931,18.378,36.496,22.762z"/>
	<path fill-rule="evenodd" clip-rule="evenodd" fill="#97BFDA" d="M35.258,10.759c-1.282-0.81-2.49-1.203-3.693-1.203
		c-1.313,0-2.431,0.474-3.415,0.892c-0.809,0.342-1.573,0.666-2.32,0.666c-0.746,0-1.51-0.324-2.319-0.666
		c-0.984-0.418-2.101-0.892-3.414-0.892c-1.204,0-2.412,0.394-3.694,1.203c-3.314,2.091-1.506,7.621-0.185,11.659l0.016,0.051
		h19.193l0.018-0.052C36.763,18.38,38.572,12.85,35.258,10.759z"/>
</g>
</svg>
